<svg width="65" height="66" viewBox="0 0 65 66" fill="none" xmlns="http://www.w3.org/2000/svg">
<path fill-rule="evenodd" clip-rule="evenodd" d="M32.5 65.5C14.5508 65.5 0 50.9492 0 33C0 15.0508 14.5508 0.5 32.5 0.5C50.4492 0.5 65 15.0508 65 33C65 50.9492 50.4492 65.5 32.5 65.5ZM32.5 59.5911C47.1858 59.5911 59.0911 47.6858 59.0911 33C59.0911 18.3145 47.1858 6.40918 32.5 6.40918C17.8145 6.40918 5.90918 18.3145 5.90918 33C5.90918 47.6858 17.8145 59.5911 32.5 59.5911ZM57.2224 33.0466C57.2224 46.6392 46.2036 57.658 32.6111 57.658C19.0188 57.658 8 46.6392 8 33.0466C8 19.4543 19.0188 8.43555 32.6111 8.43555C46.2036 8.43555 57.2224 19.4543 57.2224 33.0466Z" fill="white"/>
</svg>
