<svg width="36" height="28" viewBox="0 0 36 28" fill="none" xmlns="http://www.w3.org/2000/svg">
<rect width="36" height="27" fill="black" fill-opacity="0" transform="translate(0 0.5)"/>
<path fill-rule="evenodd" clip-rule="evenodd" d="M2.16992 4.5H8.4397C9.00537 4.5 9.53052 4.2019 9.82666 3.71997L11.1624 2.05103C11.7546 1.08716 12.8049 0.5 13.9363 0.5H22.4639C23.595 0.5 24.6453 1.08716 25.2375 2.05103L26.5732 3.71997C26.8696 4.2019 27.3945 4.5 27.9602 4.5H33.8301C35.0288 4.5 36 5.47119 36 6.66992V25.3293C36 26.5283 35.0288 27.5 33.8301 27.5H2.16992C0.971191 27.5 0 26.5283 0 25.3293V6.66992C0 5.47119 0.971191 4.5 2.16992 4.5ZM24.4568 2.67603L24.3857 2.57471C23.9753 1.90698 23.2476 1.5 22.4639 1.5H13.9363C13.1523 1.5 12.4248 1.90698 12.0144 2.57471L11.9431 2.67603L10.6416 4.30225C10.1572 5.0459 9.32935 5.5 8.4397 5.5H2.16992C1.52344 5.5 1 6.02344 1 6.66992V25.3293C1 25.9761 1.52368 26.5 2.16992 26.5H33.8301C34.4763 26.5 35 25.9761 35 25.3293V6.66992C35 6.02344 34.4766 5.5 33.8301 5.5H27.9602C27.0708 5.5 26.2427 5.0459 25.7585 4.30225L24.4568 2.67603ZM6.6062 2.09009H4.3728C4.073 2.09009 3.83008 2.33301 3.83008 2.63281V3.49634H7.14893V2.63281C7.14893 2.33301 6.90576 2.09009 6.6062 2.09009Z" fill="white" fill-opacity="0.5"/>
<path fill-rule="evenodd" clip-rule="evenodd" d="M22.5 14.5H24.9966C24.8652 11.0261 22.0073 8.25 18.5012 8.25C17.2036 8.25 15.9636 8.63062 14.9067 9.3335L14.353 8.50073C15.5728 7.68945 17.0049 7.25 18.5012 7.25C22.5598 7.25 25.8652 10.4736 25.9971 14.5H28.5L25.5 18.5L22.5 14.5ZM14.5 15H12.0034C12.1348 18.4739 14.9924 21.25 18.4988 21.25C19.7964 21.25 21.0361 20.8694 22.093 20.1665L22.647 20.9993C21.4272 21.8105 19.9949 22.25 18.4988 22.25C14.4402 22.25 11.1345 19.0264 11.0027 15H8.5L11.5 11L14.5 15Z" fill="white"/>
</svg>
