<svg width="36" height="36" viewBox="0 0 36 36" fill="none" xmlns="http://www.w3.org/2000/svg">
<circle cx="18" cy="18" r="18" fill="#FC4600"/>
<path d="M20.4648 20.0859H16.5977L16 9H21.0625L20.4648 20.0859ZM16.0469 24.1875C16.0469 23.4766 16.2578 22.9258 16.6797 22.5352C17.1016 22.1367 17.7148 21.9375 18.5195 21.9375C19.3164 21.9375 19.918 22.1367 20.3242 22.5352C20.7383 22.9258 20.9453 23.4766 20.9453 24.1875C20.9453 24.8906 20.7305 25.4414 20.3008 25.8398C19.8789 26.2305 19.2852 26.4258 18.5195 26.4258C17.7461 26.4258 17.1406 26.2305 16.7031 25.8398C16.2656 25.4414 16.0469 24.8906 16.0469 24.1875Z" fill="white"/>
</svg>
