<svg width="10" height="10" viewBox="0 0 10 10" fill="none" xmlns="http://www.w3.org/2000/svg">
<path d="M9.01785 1.83835L6.18991 4.6666L9.01785 7.49473C9.43849 7.91553 9.43849 8.59718 9.01785 9.01799C8.80768 9.22817 8.53213 9.33333 8.25671 9.33333C7.98083 9.33333 7.70526 9.22833 7.49524 9.01799L4.66668 6.18954L1.83833 9.01796C1.62819 9.22814 1.35261 9.33331 1.07695 9.33331C0.801369 9.33331 0.525978 9.2283 0.315643 9.01796C-0.105 8.59734 -0.105 7.91567 0.315643 7.4947L3.14351 4.66658L0.315482 1.83835C-0.105161 1.4177 -0.105161 0.735889 0.315482 0.315243C0.736045 -0.105081 1.41745 -0.105081 1.83817 0.315243L4.66665 3.1435L7.49492 0.315243C7.91572 -0.105081 8.59721 -0.105081 9.01769 0.315243C9.43849 0.735889 9.43849 1.4177 9.01785 1.83835Z" transform="translate(0.34375 0.333252)" fill="white"/>
</svg>
