<svg width="16" height="16" viewBox="0 0 16 16" fill="none" xmlns="http://www.w3.org/2000/svg">
<path d="M14.4971 0H9.98828C9.1616 0 8.00708 0.4782 7.4226 1.06272L0.438367 8.04694C-0.146122 8.63143 -0.146122 9.58795 0.438367 10.1724L5.82759 15.5616C6.41208 16.1461 7.36853 16.1461 7.95305 15.5616L14.9373 8.5774C15.5218 7.99288 16 6.83833 16 6.01173V1.50294C16 0.67632 15.3237 0 14.4971 0ZM12.5 5.00001C11.6716 5.00001 11 4.32846 11 3.50001C11 2.67159 11.6716 2.00001 12.5 2.00001C13.3284 2.00001 14 2.67159 14 3.50001C14 4.32843 13.3284 5.00001 12.5 5.00001Z" fill="white"/>
</svg>
