<svg width="34" height="38" viewBox="0 0 34 38" fill="none" xmlns="http://www.w3.org/2000/svg">
<path fill-rule="evenodd" clip-rule="evenodd" d="M29.6867 20.6363C31.26 20.7092 32.5947 19.4503 32.6636 17.8242C32.7325 16.198 31.6262 14.7361 30.0517 14.6658L19.5988 13.3326C19.5988 13.3326 21.7772 9.63138 21.7772 4.14753C21.7772 0.491889 19.2062 6.88039e-08 17.6941 6.88039e-08C16.5047 -0.000463394 16.1844 2.34064 16.1844 2.34064H16.1819C15.9126 3.8418 15.5619 5.15278 14.3432 7.5665C12.979 10.2719 11.1211 10.0181 8.95207 12.4278C8.56927 12.8521 8.05492 13.5526 7.55365 14.4145C7.51273 14.46 7.47456 14.5238 7.4376 14.6136C7.39289 14.7205 7.33936 14.7947 7.29221 14.8935C7.20917 15.0485 7.1275 15.2034 7.0472 15.3661C5.70474 16.7298 3.61325 16.5904 2.72264 16.5904C0.93624 16.5904 0.000608299 17.6448 0.000608299 19.3554L0 31.9969C0 33.9161 0.773052 34.5634 2.72279 34.5634H5.44482C6.81527 34.5634 7.88839 35.3615 9.52802 35.9459C11.7739 36.7362 15.128 37.3295 20.9057 37.3295C21.9162 37.3295 25.0502 37.3333 25.0502 37.3333C26.0097 37.3333 26.7805 36.8881 27.3367 36.3505C27.5484 36.1461 27.7692 35.8492 27.8636 35.2698C27.879 35.1801 27.8954 34.8037 27.893 34.7529C27.9655 33.0956 26.9793 32.4956 26.4205 32.3066C26.4357 32.3014 26.4257 32.2871 26.4561 32.2884L28.2299 32.369C29.8044 32.4419 31.3586 31.2898 31.3586 29.3304C31.3586 27.7057 30.062 26.5598 28.4927 26.4818L29.4332 26.5261C31.0076 26.5964 32.3385 25.3375 32.4113 23.7114C32.4799 22.0854 31.26 20.7094 29.6867 20.6363Z" transform="translate(0.656494 0.323242)" fill="white"/>
</svg>
