<svg width="16" height="16" viewBox="0 0 16 16" fill="none" xmlns="http://www.w3.org/2000/svg">
<path d="M12.5576 13.9642C12.9175 13.9642 13.2026 13.7981 13.4131 13.4659C13.6236 13.1336 13.7288 12.6812 13.7288 12.1087C13.7288 11.529 13.627 11.0767 13.4233 10.7515C13.2128 10.4263 12.9243 10.2638 12.5576 10.2638C12.1978 10.2638 11.9126 10.4263 11.7021 10.7515C11.4916 11.0837 11.3864 11.5361 11.3864 12.1087C11.3864 12.6812 11.4916 13.1336 11.7021 13.4659C11.9126 13.7981 12.1978 13.9642 12.5576 13.9642ZM12.5576 16C11.5324 16 10.704 15.643 10.0726 14.9291C9.44112 14.2152 9.1254 13.2786 9.1254 12.1193C9.1254 10.96 9.44112 10.0234 10.0726 9.30948C10.704 8.59554 11.5324 8.23857 12.5576 8.23857C13.5896 8.23857 14.4214 8.592 15.0528 9.29887C15.6843 10.0128 16 10.9529 16 12.1193C16 13.2786 15.6843 14.2152 15.0528 14.9291C14.4214 15.643 13.5896 16 12.5576 16ZM3.44239 7.76143C2.41714 7.76143 1.5888 7.40446 0.957352 6.69052C0.319117 5.97658 0 5.03645 0 3.87011C0 2.71085 0.315722 1.77778 0.947167 1.07091C1.5854 0.356969 2.41714 0 3.44239 0C4.47443 0 5.30617 0.353435 5.93762 1.0603C6.56906 1.77424 6.88479 2.71085 6.88479 3.87011C6.88479 5.03645 6.56906 5.97658 5.93762 6.69052C5.30617 7.40446 4.47443 7.76143 3.44239 7.76143ZM1.61935 15.6501L7.16996 7.63419L11.5901 0.349901H14.4519L8.80968 8.42942L4.49141 15.6501H1.61935ZM3.44239 5.72565C3.80225 5.72565 4.08742 5.55953 4.2979 5.2273C4.50838 4.89507 4.61362 4.44268 4.61362 3.87011C4.61362 3.29048 4.51178 2.83455 4.30808 2.50232C4.0976 2.17716 3.80904 2.01458 3.44239 2.01458C3.08254 2.01458 2.79737 2.18069 2.58689 2.51292C2.37641 2.84515 2.27116 3.29755 2.27116 3.87011C2.27116 4.44268 2.37641 4.89507 2.58689 5.2273C2.79737 5.55953 3.08254 5.72565 3.44239 5.72565Z" fill="white"/>
</svg>
