<svg width="24" height="24" viewBox="0 0 24 24" fill="none" xmlns="http://www.w3.org/2000/svg">
<path d="M9.32119 5.75935C9.32119 2.25153 7.5 0 4.66887 0C1.82119 0 0 2.25153 0 5.75935C0 9.28348 1.82119 11.5187 4.66887 11.5187C7.5 11.5187 9.32119 9.28348 9.32119 5.75935ZM4.66887 9.96873C3.04636 9.96873 2.03642 8.36982 2.03642 5.75935C2.03642 3.16519 3.04636 1.54997 4.66887 1.54997C6.27483 1.54997 7.28477 3.16519 7.28477 5.75935C7.28477 8.36982 6.27483 9.96873 4.66887 9.96873ZM3.5596 23.7879L21.1589 0.244731H18.9404L1.3245 23.7879H3.5596ZM22.5 18.2407C22.5 14.7328 20.6623 12.4813 17.8311 12.4813C15 12.4813 13.1623 14.7328 13.1623 18.2407C13.1623 21.7648 15 24 17.8311 24C20.6623 24 22.5 21.7648 22.5 18.2407ZM17.8311 22.45C16.2086 22.45 15.1987 20.8511 15.1987 18.2407C15.1987 15.6465 16.2086 14.0476 17.8311 14.0476C19.4536 14.0476 20.4636 15.6465 20.4636 18.2407C20.4636 20.8511 19.4536 22.45 17.8311 22.45Z" transform="translate(0.75)" fill="#A1A1A1"/>
</svg>
