<svg width="24" height="22" viewBox="0 0 24 22" fill="none" xmlns="http://www.w3.org/2000/svg">
<path d="M22.1095 1.94687C20.9304 0.691424 19.3045 0 17.5312 0C15.0496 0 13.1372 1.25604 12 3.63287C10.8628 1.25604 8.95036 0 6.46875 0C4.69552 0 3.06961 0.691424 1.89047 1.94692C0.653719 3.26377 0 5.06639 0 7.15988C0 9.67102 1.51762 12.4337 4.51069 15.3712C7.22447 18.0345 10.1986 19.9036 10.7673 20.2513C11.0043 20.3962 11.5317 20.7159 11.5317 20.7159L12.0001 21L12.4686 20.7158C12.4686 20.7158 12.9955 20.3961 13.2323 20.2513C13.801 19.9035 16.7753 18.0343 19.4891 15.3711C22.4823 12.4337 24 9.67102 24 7.15988C24 5.06639 23.3463 3.26377 22.1095 1.94687ZM18.2097 13.93C15.6429 16.4489 12.828 18.218 12.2898 18.547C12.214 18.5933 12.1083 18.6577 11.9999 18.7237C11.8913 18.6578 11.7855 18.5933 11.7098 18.547C11.1716 18.218 8.35697 16.4491 5.79009 13.93C3.22884 11.4163 1.875 9.07526 1.875 7.15988C1.875 4.10498 3.76402 1.97141 6.46875 1.97141C8.22825 1.97141 9.48295 2.79078 10.3044 4.47639C10.9637 5.82883 11.0636 7.231 11.0646 7.245L11.1006 7.24243H12.9355C12.9364 7.22893 13.0364 5.85658 13.6724 4.5244C14.481 2.83036 15.7793 1.97141 17.5312 1.97141C20.236 1.97141 22.125 4.10498 22.125 7.15988C22.125 9.07526 20.7711 11.4163 18.2097 13.93Z" transform="translate(0 0.5)" fill="#A1A1A1"/>
</svg>
