<svg width="24" height="22" viewBox="0 0 24 22" fill="none" xmlns="http://www.w3.org/2000/svg">
    <path d="M0.829029 12.5055H2.78392V20.178C2.78392 20.6301 3.16093 21 3.62172 21H9.34673C9.80752 21 10.1845 20.6301 10.1845 20.178V14.5606H13.6754V20.178C13.6754 20.6301 14.0524 21 14.5132 21H19.9589C20.4197 21 20.7967 20.6301 20.7967 20.178V12.5055H23.1705C23.5056 12.5055 23.8128 12.3 23.9385 11.9986C24.0641 11.6972 23.9943 11.3409 23.7569 11.108L12.8376 0.243304C12.5164 -0.0718298 11.9858 -0.0855145 11.6646 0.22962L0.256563 11.0943C0.00522181 11.3273 -0.0646116 11.6834 0.0610589 11.9986C0.186729 12.3137 0.493908 12.5055 0.829029 12.5055ZM12.2232 1.98329L21.1597 10.8614H19.9588C19.498 10.8614 19.121 11.2313 19.121 11.6834V19.3559H15.3509V13.7386C15.3509 13.2864 14.9739 12.9165 14.5131 12.9165H9.34673C8.88594 12.9165 8.50892 13.2864 8.50892 13.7386V19.3559H4.45953V11.6834C4.45953 11.2313 4.08251 10.8614 3.62172 10.8614H2.89564L12.2232 1.98329Z" transform="translate(0 0.5)" fill="#A1A1A1"/>
</svg>
