<svg width="16" height="16" viewBox="0 0 16 16" fill="none" xmlns="http://www.w3.org/2000/svg">
<path d="M15.4592 3.15145L10.6113 7.99989L15.4592 12.8481C16.1803 13.5695 16.1803 14.738 15.4592 15.4594C15.0989 15.8197 14.6265 16 14.1544 16C13.6814 16 13.209 15.82 12.849 15.4594L8.00002 10.6106L3.15143 15.4594C2.79118 15.8197 2.31876 16 1.8462 16C1.37378 16 0.901676 15.8199 0.541102 15.4594C-0.18 14.7383 -0.18 13.5697 0.541102 12.8481L5.38887 7.99984L0.540827 3.15145C-0.180276 2.43034 -0.180276 1.26152 0.540827 0.540417C1.26179 -0.180139 2.42991 -0.180139 3.15115 0.540417L7.99998 5.38886L12.8484 0.540417C13.5698 -0.180139 14.7381 -0.180139 15.4589 0.540417C16.1803 1.26152 16.1803 2.43034 15.4592 3.15145Z" fill="#A1A1A1"/>
</svg>
