<svg width="22" height="22" viewBox="0 0 22 22" fill="none" xmlns="http://www.w3.org/2000/svg">
<path fill-rule="evenodd" clip-rule="evenodd" d="M21.2666 9.48226C21.2328 9.18238 20.8832 8.95703 20.5808 8.95703C19.6033 8.95703 18.7359 8.38307 18.3721 7.49541C18.0004 6.58624 18.2401 5.52595 18.9686 4.85768C19.1979 4.64805 19.2258 4.29713 19.0335 4.05337C18.5331 3.41805 17.9645 2.84417 17.3436 2.3468C17.1005 2.15169 16.7437 2.17884 16.5329 2.41228C15.8971 3.11642 14.755 3.37812 13.8725 3.0099C12.9541 2.62358 12.375 1.69298 12.4316 0.694044C12.4503 0.380272 12.221 0.107459 11.9081 0.0710255C11.1113 -0.0211295 10.3076 -0.023987 9.5084 0.0646754C9.19915 0.0988069 8.96982 0.365191 8.98022 0.674993C9.01499 1.66409 8.42887 2.57842 7.5196 2.95085C6.64764 3.307 5.51357 3.04753 4.87903 2.34966C4.66931 2.11979 4.31839 2.09153 4.07406 2.28195C3.43476 2.78352 2.85332 3.35788 2.3484 3.98797C2.15146 4.23292 2.18044 4.58797 2.41206 4.79871C3.15448 5.47102 3.3942 6.54052 3.0085 7.46017C2.64027 8.33695 1.72981 8.90202 0.687505 8.90202C0.349277 8.89115 0.108367 9.11816 0.0713769 9.42566C-0.0224472 10.227 -0.0235585 11.0436 0.066773 11.8515C0.10027 12.1526 0.460564 12.376 0.766247 12.376C1.69512 12.3522 2.58693 12.9273 2.96103 13.8377C3.33395 14.7468 3.09423 15.8065 2.36459 16.4753C2.13638 16.6849 2.10741 17.0353 2.29974 17.2791C2.79537 17.9103 3.36411 18.4848 3.98722 18.9863C4.23163 19.1832 4.58724 19.1554 4.7991 18.922C5.43729 18.2161 6.57929 17.9549 7.45832 18.3238C8.37902 18.7089 8.95816 19.6395 8.90148 20.639C8.88299 20.9529 9.11342 21.2262 9.42498 21.2621C9.83258 21.3096 10.2426 21.3333 10.6538 21.3333C11.0441 21.3333 11.4345 21.3119 11.8248 21.2685C12.1341 21.2344 12.3633 20.968 12.3529 20.6576C12.3171 19.6691 12.9042 18.7547 13.8123 18.3829C14.6902 18.0244 15.8195 18.2868 16.4541 18.984C16.665 19.2134 17.0135 19.2411 17.2591 19.0513C17.8972 18.5509 18.4775 17.977 18.9848 17.3452C19.1817 17.1008 19.1539 16.7452 18.9211 16.5345C18.1786 15.8622 17.9377 14.7926 18.3234 13.8735C18.686 13.0084 19.5627 12.4276 20.5056 12.4276L20.6375 12.431C20.9434 12.4558 21.2247 12.2202 21.2618 11.9081C21.3558 11.106 21.3569 10.2901 21.2666 9.48226ZM10.6836 14.2472C8.72153 14.2472 7.12557 12.6512 7.12557 10.6892C7.12557 8.72732 8.72153 7.13131 10.6836 7.13131C12.6456 7.13131 14.2415 8.72732 14.2415 10.6892C14.2415 12.6512 12.6456 14.2472 10.6836 14.2472Z" transform="translate(0.333252 0.333252)" fill="#A1A1A1"/>
</svg>
